<svg height="741" viewBox="0 0 810 741" width="810" xmlns="http://www.w3.org/2000/svg"><g fill="none" fill-rule="evenodd" transform="translate(0 -1)"><g transform="translate(0 .49)"><path d="m461.2955.5103h-450.69c-5.833 0-10.605 4.606-10.605 10.236v262.56c0 5.63 4.772 10.236 10.605 10.236h101.455l-19.772 76.116 182.325-76.116h186.682c5.832 0 10.604-4.606 10.604-10.236v-262.56c0-5.63-4.772-10.236-10.604-10.236" fill="#15375f"/><path d="m804.1451 482.8701-44.006-127.47c16.598-29.658 26.071-63.844 26.071-100.248 0-113.549-92.049-205.599-205.598-205.599-113.55 0-205.6 92.05-205.6 205.599s92.05 205.599 205.6 205.599c33.069 0 64.308-7.819 91.988-21.692z" fill="#18818a"/><path d="m804.1451 482.8701-44.006-127.47c16.598-29.658 26.071-63.844 26.071-100.248 0-113.549-92.049-205.599-205.598-205.599-113.55 0-205.6 92.05-205.6 205.599s92.05 205.599 205.6 205.599c33.069 0 64.308-7.819 91.988-21.692z" stroke="#fefefe" stroke-width="6.698"/></g><path d="m500.968207 220.471908c0 7.731573-2.200574 13.653312-6.601788 17.765395s-10.756642 6.168094-19.066477 6.168094h-13.299952v-46.967464h14.745599c7.667322 0 13.621186 2.023886 17.861771 6.071717 4.240586 4.047832 6.360847 9.701862 6.360847 16.962258zm-10.344407.257004c0-10.087454-4.45469-15.131105-13.364203-15.131105h-5.300706v30.583465h4.27269c9.594861 0 14.392219-5.150735 14.392219-15.45236zm18.889787-21.524077c0-3.191148 1.777593-4.786698 5.332831-4.786698 3.555239 0 5.332831 1.59555 5.332831 4.786698 0 1.520614-.444398 2.703891-1.333208 3.549866-.888809.845976-2.222004 1.268957-3.999623 1.268957-3.555238 0-5.332831-1.606258-5.332831-4.818823zm10.215905 45.200562h-9.798274v-35.916296h9.798274zm18.825536 0-13.685458-35.916296h10.248031l6.939106 20.463936c.706764 2.227378 1.167225 4.6796 1.381396 7.356737h.257004c.128502-2.420132.61038-4.872353 1.445647-7.356737l6.906979-20.463936h10.248031l-13.685458 35.916296zm43.754915-29.6197c-2.077458 0-3.705133.658566-4.883074 1.975717-1.17794 1.317152-1.852569 3.185766-2.023906 5.605898h13.749709c-.042834-2.420132-.674629-4.288746-1.895403-5.605898-1.220775-1.317151-2.869867-1.975717-4.947326-1.975717zm1.381396 30.26221c-5.782616 0-10.301557-1.59555-13.556956-4.786698s-4.883074-7.710088-4.883074-13.556956c0-6.018205 1.504529-10.671 4.513631-13.958525 3.009103-3.287524 7.169312-4.931262 12.480752-4.931262 5.075853 0 9.027249 1.445632 11.854306 4.336941 2.827057 2.891308 4.240564 6.885537 4.240564 11.982807v4.754572h-23.162477c.107086 2.784223.931632 4.958026 2.473663 6.521474 1.542031 1.563449 3.705125 2.345161 6.489348 2.345161 2.163127 0 4.20843-.224876 6.135969-.674635 1.927538-.449759 3.940716-1.167221 6.039591-2.152408v7.581615c-1.713368.856684-3.544502 1.493833-5.493458 1.911467-1.948956.417633-4.326219.626447-7.131859.626447zm42.662649-37.233441c1.32786 0 2.430824.096375 3.308925.289129l-.738886 9.18789c-.792433-.214171-1.756188-.321255-2.891294-.321255-3.126896 0-5.563055.803129-7.308549 2.409412-1.745493 1.606282-2.618227 3.855044-2.618227 6.746352v18.279403h-9.798274v-35.916296h7.420988l1.445647 6.039592h.481882c1.113689-2.013207 2.618218-3.635528 4.513631-4.867012 1.895414-1.231483 3.956779-1.847215 6.184157-1.847215zm34.88828 25.925269c0 3.683741-1.279652 6.489339-3.838996 8.416878-2.559343 1.927539-6.387592 2.891294-11.484862 2.891294-2.612886 0-4.840231-.176689-6.682101-.530071-1.841871-.353382-3.565921-.872739-5.172204-1.558086v-8.095623c1.820454.856684 3.87111 1.574146 6.152031 2.152408 2.280921.578261 4.288744.867388 6.023529.867388 3.555239 0 5.332831-1.028005 5.332831-3.084047 0-.771016-.235584-1.397456-.706761-1.879341-.471176-.481885-1.285013-1.028013-2.441537-1.6384-1.156523-.610387-2.698531-1.322495-4.62607-2.136345-2.762806-1.156523-4.792045-2.227362-6.08778-3.212549-1.295735-.985186-2.238073-2.114921-2.827043-3.389239-.58897-1.274317-.883451-2.843096-.883451-4.706384 0-3.191148 1.236819-5.659431 3.710494-7.404925 2.473675-1.745493 5.980672-2.618227 10.521097-2.618227 4.326254 0 8.534651.942338 12.625317 2.827043l-2.955545 7.067607c-1.799036-.771015-3.480253-1.40281-5.043701-1.895404-1.563449-.492593-3.158998-.738886-4.786698-.738886-2.891308 0-4.336941.781713-4.336941 2.345161 0 .878101.465815 1.638397 1.397459 2.28091.931644.642512 2.971592 1.595559 6.119905 2.859168 2.80564 1.135106 4.861651 2.195237 6.168094 3.180423 1.306443.985187 2.270198 2.120276 2.891294 3.405302s.931639 2.816326.931639 4.593945zm22.519967-18.954038c-2.077458 0-3.705133.658566-4.883074 1.975717-1.17794 1.317152-1.852569 3.185766-2.023906 5.605898h13.749709c-.042834-2.420132-.674629-4.288746-1.895403-5.605898-1.220775-1.317151-2.869867-1.975717-4.947326-1.975717zm1.381396 30.26221c-5.782616 0-10.301557-1.59555-13.556956-4.786698s-4.883074-7.710088-4.883074-13.556956c0-6.018205 1.504529-10.671 4.513631-13.958525 3.009103-3.287524 7.169312-4.931262 12.480752-4.931262 5.075853 0 9.027249 1.445632 11.854306 4.336941 2.827057 2.891308 4.240564 6.885537 4.240564 11.982807v4.754572h-23.162477c.107086 2.784223.931632 4.958026 2.473663 6.521474 1.542031 1.563449 3.705125 2.345161 6.489348 2.345161 2.163127 0 4.20843-.224876 6.135969-.674635 1.927538-.449759 3.940716-1.167221 6.039591-2.152408v7.581615c-1.713368.856684-3.544502 1.493833-5.493458 1.911467-1.948956.417633-4.326219.626447-7.131859.626447z" fill="#f8f8f9"/><path d="m93.6435491 140.189285h-21.3634497v-5.654086l5.7183369-2.63429v-30.390712l-5.7183369-2.6342899v-5.654086h21.3634497v5.654086l-5.7183369 2.6342899v30.390712l5.7183369 2.63429zm40.4138639 0h-9.798274v-20.977944c0-2.591469-.46046-4.535041-1.381396-5.830776-.920935-1.295734-2.387984-1.943592-4.401191-1.943592-2.741389 0-4.722441.915567-5.943216 2.746729-1.220774 1.831162-1.831153 4.866991-1.831153 9.107576v16.898007h-9.798274v-35.916296h7.485239l1.317145 4.593945h.546134c1.092272-1.734785 2.5968-3.046563 4.513631-3.935372 1.91683-.88881 4.095987-1.333208 6.537537-1.333208 4.176334 0 7.346017 1.129735 9.509144 3.389239s3.244674 5.520208 3.244674 9.782211zm24.672375.64251c-11.179725 0-16.769504-6.135907-16.769504-18.407905 0-6.103873 1.520591-10.767377 4.561819-13.99065 3.041228-3.223274 7.399542-4.834886 13.075074-4.834886 4.154917 0 7.881436.813837 11.179669 2.441537l-2.891293 7.581615c-1.542032-.621096-2.976956-1.129744-4.304816-1.525961-1.32786-.396216-2.6557-.594321-3.98356-.594321-5.09727 0-7.645867 3.619435-7.645867 10.858415 0 7.024809 2.548597 10.53716 7.645867 10.53716 1.884704 0 3.630172-.251647 5.236454-.754949 1.606283-.503302 3.212541-1.290368 4.818823-2.361223v8.384752c-1.584865 1.006604-3.185769 1.702649-4.80276 2.088157s-3.656939.578259-6.119906.578259zm29.041442-.64251h-9.798274v-49.9872598h9.798274zm34.427236 0-1.317145-4.593945h-.514008c-1.049438 1.670534-2.537904 2.960895-4.465443 3.871122-1.927539.910226-4.122759 1.365333-6.585725 1.365333-4.219168 0-7.39956-1.129735-9.54127-3.389239s-3.212549-5.5095-3.212549-9.750086v-23.419481h9.798274v20.977944c0 2.591469.460461 4.535042 1.381396 5.830776.920935 1.295735 2.387985 1.943592 4.401192 1.943592 2.741389 0 4.722441-.915567 5.943215-2.746729 1.220775-1.831162 1.831153-4.86699 1.831153-9.107576v-16.898007h9.798274v35.916296zm42.855401-10.665662c0 3.683741-1.279652 6.489339-3.838996 8.416878-2.559343 1.927539-6.387592 2.891294-11.484862 2.891294-2.612886 0-4.840231-.176689-6.682101-.530071-1.841871-.353382-3.565921-.872739-5.172204-1.558086v-8.095623c1.820454.856684 3.87111 1.574146 6.152031 2.152408 2.280921.578261 4.288744.867388 6.023529.867388 3.555239 0 5.332831-1.028005 5.332831-3.084047 0-.771016-.235584-1.397456-.70676-1.879341-.471177-.481885-1.285014-1.028013-2.441538-1.6384-1.156523-.610387-2.698531-1.322495-4.62607-2.136345-2.762806-1.156523-4.792045-2.227362-6.08778-3.212549-1.295734-.985186-2.238073-2.114921-2.827043-3.389239-.58897-1.274317-.883451-2.843096-.883451-4.706384 0-3.191148 1.236819-5.659431 3.710494-7.404925 2.473675-1.745493 5.980672-2.618227 10.521097-2.618227 4.326255 0 8.534651.942338 12.625317 2.827043l-2.955545 7.067607c-1.799036-.771015-3.480253-1.40281-5.043701-1.895404-1.563448-.492593-3.158998-.738886-4.786698-.738886-2.891308 0-4.336941.781713-4.336941 2.345161 0 .878101.465815 1.638397 1.397459 2.28091.931644.642512 2.971592 1.595559 6.119905 2.859168 2.80564 1.135106 4.861651 2.195237 6.168094 3.180423 1.306443.985187 2.270198 2.120276 2.891294 3.405302s.931639 2.816326.931639 4.593945zm7.228235-34.5349c0-3.1911478 1.777593-4.7866978 5.332831-4.7866978 3.555239 0 5.332831 1.59555 5.332831 4.7866978 0 1.520614-.444398 2.703891-1.333208 3.5498664-.888809.8459755-2.222004 1.2689568-3.999623 1.2689568-3.555238 0-5.332831-1.6062583-5.332831-4.8188232zm10.215905 45.200562h-9.798274v-35.916296h9.798274zm18.825537 0-13.685459-35.916296h10.248031l6.939106 20.463936c.706764 2.227378 1.167225 4.6796 1.381396 7.356737h.257004c.128502-2.420132.61038-4.872353 1.445647-7.356737l6.90698-20.463936h10.24803l-13.685458 35.916296zm43.754915-29.6197c-2.077459 0-3.705134.658566-4.883075 1.975717-1.17794 1.317152-1.852569 3.185766-2.023905 5.605898h13.749709c-.042835-2.420132-.67463-4.288746-1.895404-5.605898-1.220775-1.317151-2.869867-1.975717-4.947325-1.975717zm1.381396 30.26221c-5.782617 0-10.301557-1.59555-13.556957-4.786698-3.255399-3.191148-4.883074-7.710088-4.883074-13.556956 0-6.018205 1.504529-10.671 4.513631-13.958525 3.009103-3.287524 7.169312-4.931262 12.480753-4.931262 5.075852 0 9.027248 1.445632 11.854305 4.336941 2.827057 2.891308 4.240564 6.885537 4.240564 11.982807v4.754572h-23.162477c.107086 2.784223.931632 4.958026 2.473663 6.521474 1.542031 1.563449 3.705125 2.345161 6.489348 2.345161 2.163127 0 4.20843-.224876 6.135969-.674635s3.940716-1.167221 6.039591-2.152408v7.581615c-1.713368.856684-3.544502 1.493833-5.493458 1.911467-1.948956.417633-4.326218.626447-7.131858.626447z" fill="#f8f8f9"/><g transform="translate(186 329.49)"><path d="m359.6363.4716h-274.717c-46.257 0-84.103 37.847-84.103 84.104v155.543c0 46.257 37.846 84.104 84.103 84.104h51.186l15.581 81.762 102.276-81.762h105.674c46.257 0 84.104-37.847 84.104-84.104v-155.543c0-46.257-37.847-84.104-84.104-84.104" fill="#21537f"/><path d="m359.6363.4716h-274.717c-46.257 0-84.103 37.847-84.103 84.104v155.543c0 46.257 37.846 84.104 84.103 84.104h51.186l15.581 81.762 102.276-81.762h105.674c46.257 0 84.104-37.847 84.104-84.104v-155.543c0-46.257-37.847-84.104-84.104-84.104z" stroke="#fefefe" stroke-width="6.621"/></g><path d="m226.869991 480.881978h3.212549c3.148314 0 5.472034-.524711 6.971231-1.574149s2.248784-2.69853 2.248784-4.947325c0-2.227378-.76565-3.81222-2.296972-4.754572-1.531323-.942353-3.903231-1.413522-7.115796-1.413522h-3.019796zm0 8.095623v18.022399h-9.958901v-46.967464h13.685458c6.382295 0 11.104695 1.16186 14.16734 3.485616 3.062645 2.323755 4.593945 5.852169 4.593945 10.585348 0 2.762806-.760296 5.220381-2.28091 7.3728-1.520614 2.152418-3.673 3.838989-6.457223 5.059764l13.81396 20.463936h-11.051168l-11.211795-18.022399zm47.577848-11.597301c-2.077458 0-3.705133.658566-4.883074 1.975717-1.17794 1.317152-1.852569 3.185766-2.023906 5.605898h13.749709c-.042834-2.420132-.674629-4.288746-1.895403-5.605898-1.220775-1.317151-2.869867-1.975717-4.947326-1.975717zm1.381396 30.26221c-5.782616 0-10.301557-1.59555-13.556956-4.786698s-4.883074-7.710088-4.883074-13.556956c0-6.018205 1.504529-10.671 4.513631-13.958525 3.009103-3.287524 7.169312-4.931262 12.480752-4.931262 5.075853 0 9.027248 1.445632 11.854306 4.336941 2.827057 2.891308 4.240564 6.885537 4.240564 11.982807v4.754572h-23.162477c.107085 2.784223.931631 4.958026 2.473663 6.521474 1.542031 1.563449 3.705125 2.345161 6.489348 2.345161 2.163127 0 4.20843-.224876 6.135968-.674635 1.927539-.449759 3.940717-1.167221 6.039592-2.152408v7.581615c-1.713368.856684-3.544502 1.493833-5.493458 1.911467-1.948956.417633-4.326219.626447-7.131859.626447zm47.674225-11.308172c0 3.683741-1.279653 6.489339-3.838996 8.416878s-6.387592 2.891294-11.484862 2.891294c-2.612886 0-4.840231-.176689-6.682102-.530071-1.84187-.353382-3.565921-.872739-5.172203-1.558086v-8.095623c1.820453.856684 3.87111 1.574146 6.152031 2.152408 2.280921.578261 4.288744.867388 6.023529.867388 3.555238 0 5.332831-1.028005 5.332831-3.084047 0-.771016-.235585-1.397456-.706761-1.879341s-1.285014-1.028013-2.441537-1.6384-2.698531-1.322495-4.62607-2.136345c-2.762806-1.156523-4.792046-2.227362-6.08778-3.212549-1.295735-.985186-2.238073-2.114921-2.827043-3.389239-.58897-1.274317-.883451-2.843096-.883451-4.706384 0-3.191148 1.236819-5.659431 3.710494-7.404925 2.473675-1.745493 5.980672-2.618227 10.521097-2.618227 4.326254 0 8.534651.942338 12.625317 2.827043l-2.955545 7.067607c-1.799036-.771015-3.480253-1.40281-5.043701-1.895404-1.563449-.492593-3.158999-.738886-4.786698-.738886-2.891309 0-4.336941.781713-4.336941 2.345161 0 .878101.465815 1.638397 1.397459 2.28091.931643.642512 2.971592 1.595559 6.119905 2.859168 2.80564 1.135106 4.861651 2.195237 6.168094 3.180423 1.306443.985187 2.270198 2.120276 2.891294 3.405302s.931639 2.816326.931639 4.593945zm27.370916 11.308172c-4.219169 0-7.528061-1.5313-9.926776-4.593945h-.514008c.342674 2.998394.514008 4.733153.514008 5.204329v14.552846h-9.798274v-51.722036h7.967121l1.381396 4.658196h.449757c2.29163-3.555239 5.686189-5.332831 10.18378-5.332831 4.240586 0 7.560186 1.638383 9.958901 4.9152 2.398715 3.276816 3.598055 7.827881 3.598055 13.653332 0 3.833661-.56219 7.16397-1.686588 9.991027s-2.725302 4.979443-4.802761 6.457223c-2.077458 1.47778-4.518971 2.216659-7.324611 2.216659zm-2.891294-29.394822c-2.420132 0-4.187016.744233-5.300706 2.232721-1.113689 1.488489-1.691942 3.946064-1.734776 7.3728v1.060141c0 3.855078.572899 6.617842 1.718714 8.288376s2.960886 2.505788 5.44527 2.505788c4.390505 0 6.585725-3.619435 6.585725-10.858415 0-3.533821-.540774-6.184148-1.622337-7.951058-1.081564-1.766911-2.778843-2.650353-5.09189-2.650353zm32.607371 10.729913c0 3.555239.583607 6.243044 1.750839 8.063498 1.167232 1.820453 3.067971 2.730666 5.702274 2.730666 2.612886 0 4.492208-.904859 5.638023-2.714604s1.718714-4.502904 1.718714-8.07956c0-3.555238-.578253-6.221627-1.734777-7.999247-1.156523-1.777619-3.051908-2.666415-5.686211-2.666415-2.612886 0-4.497563.883442-5.654086 2.650353-1.156523 1.76691-1.734776 4.438653-1.734776 8.015309zm24.833002 0c0 5.846868-1.542008 10.41935-4.62607 13.717584-3.084063 3.298233-7.378127 4.947325-12.882321 4.947325-3.448153 0-6.489335-.754942-9.123639-2.264847-2.634303-1.509906-4.658188-3.678354-6.071717-6.505412-1.413529-2.827057-2.120282-6.12524-2.120282-9.89465 0-5.868285 1.531299-10.430059 4.593945-13.685458 3.062645-3.255399 7.367417-4.883074 12.914446-4.883074 3.448153 0 6.489335.749587 9.123639 2.248784 2.634303 1.499197 4.658188 3.651583 6.071717 6.457223 1.413528 2.80564 2.120282 6.093116 2.120282 9.862525zm41.249127 18.022399h-9.798274v-20.977944c0-2.591469-.460461-4.535041-1.381396-5.830776-.920935-1.295734-2.387984-1.943592-4.401192-1.943592-2.741388 0-4.72244.915567-5.943215 2.746729s-1.831153 4.866991-1.831153 9.107576v16.898007h-9.798274v-35.916296h7.485239l1.317145 4.593945h.546133c1.092272-1.734785 2.596801-3.046563 4.513631-3.935372 1.916831-.88881 4.095988-1.333208 6.537537-1.333208 4.176335 0 7.346018 1.129735 9.509145 3.389239s3.244674 5.520208 3.244674 9.782211zm35.145284-10.665662c0 3.683741-1.279652 6.489339-3.838996 8.416878-2.559343 1.927539-6.387592 2.891294-11.484862 2.891294-2.612886 0-4.840231-.176689-6.682101-.530071-1.841871-.353382-3.565921-.872739-5.172204-1.558086v-8.095623c1.820454.856684 3.87111 1.574146 6.152031 2.152408 2.280921.578261 4.288744.867388 6.023529.867388 3.555239 0 5.332831-1.028005 5.332831-3.084047 0-.771016-.235584-1.397456-.706761-1.879341-.471176-.481885-1.285013-1.028013-2.441537-1.6384-1.156523-.610387-2.698531-1.322495-4.62607-2.136345-2.762806-1.156523-4.792045-2.227362-6.08778-3.212549-1.295734-.985186-2.238073-2.114921-2.827043-3.389239-.58897-1.274317-.883451-2.843096-.883451-4.706384 0-3.191148 1.236819-5.659431 3.710494-7.404925 2.473675-1.745493 5.980672-2.618227 10.521097-2.618227 4.326255 0 8.534651.942338 12.625317 2.827043l-2.955545 7.067607c-1.799036-.771015-3.480253-1.40281-5.043701-1.895404-1.563448-.492593-3.158998-.738886-4.786698-.738886-2.891308 0-4.336941.781713-4.336941 2.345161 0 .878101.465815 1.638397 1.397459 2.28091.931644.642512 2.971592 1.595559 6.119905 2.859168 2.80564 1.135106 4.861651 2.195237 6.168094 3.180423 1.306443.985187 2.270198 2.120276 2.891294 3.405302s.931639 2.816326.931639 4.593945zm7.228235-34.5349c0-3.191148 1.777593-4.786698 5.332831-4.786698 3.555239 0 5.332831 1.59555 5.332831 4.786698 0 1.520614-.444398 2.703891-1.333208 3.549866-.888809.845976-2.222004 1.268957-3.999623 1.268957-3.555238 0-5.332831-1.606258-5.332831-4.818823zm10.215905 45.200562h-9.798274v-35.916296h9.798274zm30.26221-36.590931c4.240586 0 7.560187 1.654446 9.958902 4.963388s3.598054 7.843944 3.598054 13.605144c0 5.932537-1.236819 10.526435-3.710494 13.781835-2.473674 3.255399-5.841463 4.883074-10.103466 4.883074-4.219168 0-7.52806-1.5313-9.926775-4.593945h-.674636l-1.6384 3.951435h-7.485238v-49.98726h9.798274v11.629427c0 1.47778-.128501 3.844334-.385506 7.099733h.385506c2.291629-3.555239 5.686188-5.332831 10.183779-5.332831zm-3.148298 7.838619c-2.420132 0-4.187016.744233-5.300705 2.232721-1.113689 1.488489-1.691942 3.946064-1.734776 7.3728v1.060141c0 3.855078.572898 6.617842 1.718713 8.288376s2.960887 2.505788 5.44527 2.505788c2.013208 0 3.614112-.926275 4.802761-2.778855 1.188649-1.852579 1.782965-4.545738 1.782965-8.07956 0-3.533821-.59967-6.184148-1.799028-7.951058-1.199357-1.766911-2.837741-2.650353-4.9152-2.650353zm34.599151 28.752312h-9.798274v-49.98726h9.798274zm25.154258-29.6197c-2.077459 0-3.705134.658566-4.883075 1.975717-1.17794 1.317152-1.852569 3.185766-2.023905 5.605898h13.749709c-.042835-2.420132-.674629-4.288746-1.895404-5.605898-1.220775-1.317151-2.869867-1.975717-4.947325-1.975717zm1.381396 30.26221c-5.782617 0-10.301557-1.59555-13.556956-4.786698s-4.883075-7.710088-4.883075-13.556956c0-6.018205 1.504529-10.671 4.513631-13.958525 3.009103-3.287524 7.169312-4.931262 12.480753-4.931262 5.075852 0 9.027248 1.445632 11.854305 4.336941 2.827057 2.891308 4.240564 6.885537 4.240564 11.982807v4.754572h-23.162477c.107086 2.784223.931632 4.958026 2.473663 6.521474 1.542031 1.563449 3.705126 2.345161 6.489348 2.345161 2.163128 0 4.20843-.224876 6.135969-.674635s3.940716-1.167221 6.039592-2.152408v7.581615c-1.713368.856684-3.544503 1.493833-5.493459 1.911467-1.948956.417633-4.326218.626447-7.131858.626447z" fill="#f8f8f9"/></g></svg>