<svg xmlns="http://www.w3.org/2000/svg" width="500" height="500" viewBox="0 0 500 500">
  <title>Artboard 4sq icons</title>
  <g>
    <line x1="364.609" y1="261.181" x2="407.601" y2="286.094" fill="none" stroke="#1c3664" stroke-linecap="round" stroke-linejoin="round" stroke-width="6"/>
    <line x1="382.114" y1="194.727" x2="431.802" y2="194.806" fill="none" stroke="#1c3664" stroke-linecap="round" stroke-linejoin="round" stroke-width="6"/>
    <line x1="364.046" y1="128.423" x2="407.117" y2="103.648" fill="none" stroke="#1c3664" stroke-linecap="round" stroke-linejoin="round" stroke-width="6"/>
    <line x1="315.246" y1="80.037" x2="340.16" y2="37.045" fill="none" stroke="#1c3664" stroke-linecap="round" stroke-linejoin="round" stroke-width="6"/>
    <line x1="248.792" y1="62.533" x2="248.871" y2="12.844" fill="none" stroke="#1c3664" stroke-linecap="round" stroke-linejoin="round" stroke-width="6"/>
    <line x1="182.488" y1="80.601" x2="157.713" y2="37.53" fill="none" stroke="#1c3664" stroke-linecap="round" stroke-linejoin="round" stroke-width="6"/>
    <line x1="134.102" y1="129.4" x2="91.11" y2="104.487" fill="none" stroke="#1c3664" stroke-linecap="round" stroke-linejoin="round" stroke-width="6"/>
    <line x1="116.598" y1="195.855" x2="66.91" y2="195.775" fill="none" stroke="#1c3664" stroke-linecap="round" stroke-linejoin="round" stroke-width="6"/>
    <line x1="134.666" y1="262.158" x2="91.595" y2="286.933" fill="none" stroke="#1c3664" stroke-linecap="round" stroke-linejoin="round" stroke-width="6"/>
  </g>
  <g>
    <g>
      <path d="M189.864,121.055h4.588a3.743,3.743,0,0,1,3.744,3.384c2.083,23.641,25.988,36.872,51.938,50.434-.94.5-1.879.975-2.818,1.481-3.4,1.769-6.826,3.539-10.186,5.381-25.388-13.641-48.9-29.024-51.025-56.583A3.786,3.786,0,0,1,189.864,121.055Z" fill="#005b6a" stroke="#fff" stroke-miterlimit="10" stroke-width="3"/>
      <path d="M314.245,242.344c0,30.159-24.525,46.377-51.145,60.68-3.359,1.77-6.79,3.576-10.185,5.345-.939.47-1.878.976-2.781,1.445-27.162,14.231-52.085,28.065-52.085,53.854s24.923,39.623,52.085,53.854c-.94.469-1.879.939-2.818,1.445-3.4,1.769-6.826,3.539-10.186,5.381-26.619-14.3-51.18-30.521-51.18-60.68s24.561-46.377,51.18-60.644c3.36-1.842,6.791-3.612,10.186-5.382.939-.506,1.878-.975,2.818-1.445,27.089-14.231,52.011-28.1,52.011-53.853s-24.922-39.623-52.011-53.818c.9-.47,1.842-.976,2.781-1.445,3.4-1.77,6.826-3.576,10.221-5.382C289.72,195.966,314.245,212.22,314.245,242.344Z" fill="#005b6a" stroke="#fff" stroke-miterlimit="10" stroke-width="3"/>
      <path d="M310.331,484.993h-4.589A3.744,3.744,0,0,1,302,481.609c-2.085-23.613-25.986-36.91-51.864-50.47.9-.47,1.842-.975,2.781-1.445,3.4-1.77,6.826-3.576,10.185-5.346,25.39,13.608,48.875,28.958,50.99,56.548A3.786,3.786,0,0,1,310.331,484.993Z" fill="#005b6a" stroke="#fff" stroke-miterlimit="10" stroke-width="3"/>
    </g>
    <g>
      <path d="M310.33,121.055a3.787,3.787,0,0,1,3.76,4.1c-2.121,27.528-25.6,42.941-50.954,56.547-3.4,1.806-6.826,3.612-10.221,5.382-.939.469-1.878.975-2.781,1.445-27.162,14.231-52.085,28.064-52.085,53.853S222.972,282,250.134,296.2c-.94.47-1.879.939-2.818,1.445-3.4,1.77-6.826,3.54-10.186,5.382-26.619-14.3-51.18-30.485-51.18-60.645,0-30.195,24.561-46.377,51.18-60.644,3.36-1.842,6.791-3.612,10.186-5.381.939-.506,1.878-.976,2.818-1.481,25.878-13.561,49.779-26.824,51.864-50.435a3.743,3.743,0,0,1,3.744-3.383Z" fill="#005b9b" stroke="#fff" stroke-miterlimit="10" stroke-width="3"/>
      <path d="M314.245,363.668c0,30.159-24.525,46.377-51.145,60.68-3.359,1.77-6.79,3.576-10.185,5.346-.939.47-1.878.975-2.781,1.445-25.95,13.561-49.855,26.825-51.938,50.47a3.743,3.743,0,0,1-3.744,3.384h-4.588a3.786,3.786,0,0,1-3.759-4.1c2.119-27.59,25.636-42.94,51.025-56.548,3.36-1.842,6.791-3.612,10.186-5.381.939-.506,1.878-.976,2.818-1.445,27.089-14.231,52.011-28.1,52.011-53.854s-24.922-39.623-52.011-53.854c.9-.469,1.842-.975,2.781-1.445,3.4-1.769,6.826-3.575,10.185-5.345C289.72,317.291,314.245,333.508,314.245,363.668Z" fill="#005b9b" stroke="#fff" stroke-miterlimit="10" stroke-width="3"/>
    </g>
    <g>
      <line x1="218.695" y1="207.223" x2="277.462" y2="204.283" fill="none" stroke="#1c3664" stroke-linecap="round" stroke-linejoin="round" stroke-width="4"/>
      <line x1="199.734" y1="232.874" x2="299.742" y2="230.289" fill="none" stroke="#1c3664" stroke-linecap="round" stroke-linejoin="round" stroke-width="4"/>
      <line x1="199.824" y1="253.748" x2="299.859" y2="255.155" fill="none" stroke="#1c3664" stroke-linecap="round" stroke-linejoin="round" stroke-width="4"/>
      <line x1="217.366" y1="276.505" x2="278.842" y2="279.448" fill="none" stroke="#1c3664" stroke-linecap="round" stroke-linejoin="round" stroke-width="4"/>
    </g>
    <line x1="199.435" y1="131.65" x2="299.95" y2="134.544" fill="none" stroke="#1c3664" stroke-linecap="round" stroke-linejoin="round" stroke-width="4"/>
    <line x1="217.069" y1="154.945" x2="279.17" y2="157.918" fill="none" stroke="#1c3664" stroke-linecap="round" stroke-linejoin="round" stroke-width="4"/>
    <g>
      <line x1="219.898" y1="327.615" x2="276.046" y2="324.806" fill="none" stroke="#1c3664" stroke-linecap="round" stroke-linejoin="round" stroke-width="4"/>
      <line x1="198.835" y1="353.349" x2="299.815" y2="350.739" fill="none" stroke="#1c3664" stroke-linecap="round" stroke-linejoin="round" stroke-width="4"/>
      <line x1="199.561" y1="374.197" x2="300.173" y2="375.611" fill="none" stroke="#1c3664" stroke-linecap="round" stroke-linejoin="round" stroke-width="4"/>
      <line x1="216.245" y1="396.904" x2="279.979" y2="399.955" fill="none" stroke="#1c3664" stroke-linecap="round" stroke-linejoin="round" stroke-width="4"/>
    </g>
    <line x1="221.171" y1="448.003" x2="275.082" y2="445.307" fill="none" stroke="#1c3664" stroke-linecap="round" stroke-linejoin="round" stroke-width="4"/>
    <line x1="199.774" y1="473.777" x2="299.475" y2="471.2" fill="none" stroke="#1c3664" stroke-linecap="round" stroke-linejoin="round" stroke-width="4"/>
  </g>
</svg>
