<svg xmlns="http://www.w3.org/2000/svg" width="500" height="500" viewBox="0 0 500 500">
  <title>Artboard 3sq icons</title>
  <rect x="180" y="149.918" width="113.642" height="145.082" rx="10" ry="10" fill="#fff"/>
  <g>
    <g>
      <path d="M250.436,423.608c4.862-.5,24.405,1.933,18.606,24.4s-9.907,27.546-13.048,32.862c0,0,.483-4.349-8.7-13.773s-19.572-12.565-19.814-22.714S238.6,424.816,250.436,423.608Z" fill="#005b6a" stroke="#fff" stroke-linecap="round" stroke-linejoin="round" stroke-width="3"/>
      <path d="M236.564,318.739s-40.64,13.531-42.984,42.527,34.384,42.528,28.585,63.792S206.7,475.317,232.8,487.882c0,0-13.531-31.895,0-39.628s40.6,1.934,41.561-8.7-15.464-23.2-17.4-32.862S286.2,396.3,292.722,365.857C295.962,350.736,293.511,321.138,236.564,318.739Z" fill="#005b9b" stroke="#fff" stroke-linecap="round" stroke-linejoin="round" stroke-width="3"/>
      <path d="M236.64,318.742s-30.092,13.41-35.331,23.618,4.184,30.5,12.157,40.17,25.614,19.572,23.439,33.346c0,0,1.933-17.4,10.39-24.4s30.446-19.089,31.654-35.279C280.319,337.839,262.471,318.5,236.64,318.742Z" fill="#005b6a" stroke="#fff" stroke-linecap="round" stroke-linejoin="round" stroke-width="3"/>
    </g>
    <path d="M175.377,233.411l-48.593,84.057a2.7,2.7,0,0,0,2.336,4.05h97.186a2.7,2.7,0,0,0,2.337-4.05L180.05,233.411A2.7,2.7,0,0,0,175.377,233.411Z" fill="#1c3664"/>
    <path d="M295.549,233.411l-48.593,84.057a2.7,2.7,0,0,0,2.336,4.05h97.186a2.7,2.7,0,0,0,2.337-4.05l-48.593-84.057A2.7,2.7,0,0,0,295.549,233.411Z" fill="#1c3664"/>
    <g>
      <path d="M215.287,247.168a6.7,6.7,0,0,1-6.724-7.245c2.157-22.478,14.188-39.683,28.707-39.683s26.549,17.2,28.706,39.683a6.7,6.7,0,0,1-6.724,7.245Z" fill="#005b6a"/>
      <g>
        <ellipse cx="230.519" cy="221.785" rx="4.469" ry="9.435" fill="#fff" stroke="#1c3664" stroke-linecap="round" stroke-linejoin="round" stroke-width="3"/>
        <ellipse cx="244.02" cy="221.785" rx="4.469" ry="9.435" fill="#fff" stroke="#1c3664" stroke-linecap="round" stroke-linejoin="round" stroke-width="3"/>
      </g>
      <path d="M205.348,240.853c-4.341-.846-7.119-5.337-6.2-10.031s5.175-7.814,9.516-6.968Z" fill="#005b6a"/>
      <path d="M266.935,240.655c4.4-.4,7.62-4.593,7.183-9.355s-4.361-8.3-8.765-7.891Z" fill="#005b6a"/>
      <line x1="236.821" y1="198.486" x2="236.821" y2="188.366" fill="none" stroke="#1c3664" stroke-linecap="round" stroke-linejoin="round" stroke-width="3"/>
      <circle cx="236.821" cy="186.876" r="3.724" fill="#1c3664"/>
      <circle cx="232.885" cy="222.163" r="3.139" fill="#1c3664"/>
      <circle cx="246.216" cy="222.163" r="3.139" fill="#1c3664"/>
      <path d="M250.119,236.771c0,2.623-5.753,4.749-12.849,4.749s-12.85-2.126-12.85-4.749" fill="none" stroke="#1c3664" stroke-linecap="round" stroke-linejoin="round" stroke-width="3"/>
      <path d="M230.689,187.075a6.128,6.128,0,0,1,12.255,0" fill="none" stroke="#1c3664" stroke-linecap="round" stroke-linejoin="round" stroke-width="3"/>
      <path d="M227.881,186.8a8.94,8.94,0,0,1,17.857-.315" fill="none" stroke="#1c3664" stroke-linecap="round" stroke-linejoin="round" stroke-width="3"/>
      <path d="M217.161,321.518a4.677,4.677,0,0,1-4.687-4.753c.875-35.4-1.749-63.355,24.347-63.355s23.472,27.958,24.346,63.355a4.675,4.675,0,0,1-4.686,4.753Z" fill="#005b6a"/>
    </g>
    <g>
      <path d="M272.719,121.483H200.561c-15.249,0-27.61,10.714-27.61,23.931L177.3,306.668c0,15.771,16.833,30.435,59.337,30.435s59.337-14.664,59.337-30.435l4.352-161.254C300.329,132.2,287.968,121.483,272.719,121.483ZM236.64,282.23c-23.781,0-43.06-27.039-43.06-60.394s19.279-60.4,43.06-60.4,43.059,27.039,43.059,60.4S260.421,282.23,236.64,282.23Z" fill="#005b9b" stroke="#fff" stroke-linecap="round" stroke-linejoin="round" stroke-width="3"/>
      <path d="M227.276,16.223l-51.839,118a6.362,6.362,0,0,0,3.6,8.546c8.035,2.966,25.128,7.152,57.6,7.152,32.265,0,49.346-4.133,57.445-7.095a6.358,6.358,0,0,0,3.536-8.7l-55.484-117.9A8.58,8.58,0,0,0,227.276,16.223Z" fill="#1c3664" stroke="#fff" stroke-linecap="round" stroke-linejoin="round" stroke-width="3"/>
    </g>
  </g>
</svg>
