<svg xmlns="http://www.w3.org/2000/svg" width="500" height="500" viewBox="0 0 500 500">
  <title>Artboard 1sq icons</title>
  <path d="M438.189,31.776a3.026,3.026,0,0,0-2.259-5.615l-146.52,59a45.01,45.01,0,0,0-83.33,33.556L59.546,177.731a3.028,3.028,0,0,0,1.13,5.833,3.033,3.033,0,0,0,1.13-.219l1.18-.475,145.338-58.528A45.336,45.336,0,0,0,245.84,149.65V371.715a2.974,2.974,0,0,0,.135.843,94.6,94.6,0,0,0-90.865,94.525H344.319A94.6,94.6,0,0,0,251.775,372.5a2.98,2.98,0,0,0,.118-.789V149.651a44.888,44.888,0,0,0,39.761-58.867l142.7-57.462Z" fill="#1c3664"/>
  <g>
    <path d="M234.09,386.041a1.414,1.414,0,0,0,1.456,1.4c7.762-.234,20.731-1.671,20.731,14.549,0,16.548-9.214,19.166-19.84,19.355a1.425,1.425,0,0,0-1.408,1.4l-.2,20.04a1.42,1.42,0,0,0,1.42,1.434h3.679a1.419,1.419,0,0,0,1.42-1.419V429.7a1.411,1.411,0,0,1,1.3-1.413c5.078-.42,23.347-3.4,23.347-24.574,0-23.712-17.439-23.693-30.555-23.661a1.416,1.416,0,0,0-1.417,1.442C234.038,382.776,234.072,384.651,234.09,386.041Z" fill="#005b9b" stroke="#fff" stroke-miterlimit="10" stroke-width="1.17"/>
    <ellipse cx="238.077" cy="455.789" rx="3.267" ry="5.25" fill="#005b9b" stroke="#fff" stroke-miterlimit="10" stroke-width="1.17"/>
  </g>
  <g>
    <rect x="15.468" y="200.474" width="99.244" height="131.962" rx="2.703" ry="2.703" fill="none" stroke="#1c3664" stroke-linecap="round" stroke-linejoin="round" stroke-width="3.01"/>
    <g>
      <path d="M101.654,335,97.2,332a.246.246,0,0,0-.351.081l-2.692,4.652a.246.246,0,0,1-.453-.068l-5.973-25.967a.246.246,0,0,1,.185-.295l7.847-1.805a.246.246,0,0,1,.3.184l5.973,25.967A.246.246,0,0,1,101.654,335Z" fill="#fff" stroke="#1c3664" stroke-linecap="round" stroke-linejoin="round" stroke-width="4.515"/>
      <path d="M101.654,335,97.2,332a.246.246,0,0,0-.351.081l-2.692,4.652a.246.246,0,0,1-.453-.068l-5.973-25.967a.246.246,0,0,1,.185-.295l7.847-1.805a.246.246,0,0,1,.3.184l5.973,25.967A.246.246,0,0,1,101.654,335Z" fill="#fff" stroke="#005b6a" stroke-linecap="round" stroke-linejoin="round" stroke-width="4.515"/>
      <path d="M92.337,336.8l-3.156-4.35a.245.245,0,0,0-.357-.044l-4.121,3.45a.246.246,0,0,1-.4-.219L87.569,309.2a.246.246,0,0,1,.275-.214l7.991.987a.246.246,0,0,1,.214.275l-3.268,26.443A.247.247,0,0,1,92.337,336.8Z" fill="#fff" stroke="#005b6a" stroke-linecap="round" stroke-linejoin="round" stroke-width="3.01"/>
    </g>
    <g>
      <polygon points="112.8 309.405 109.464 312.085 111.814 315.662 107.811 317.177 108.934 321.307 104.658 321.509 104.456 325.785 100.326 324.661 98.812 328.665 95.235 326.314 92.554 329.651 89.874 326.314 86.297 328.665 84.783 324.661 80.653 325.784 80.45 321.509 76.175 321.306 77.298 317.176 73.295 315.663 75.645 312.085 72.309 309.405 75.645 306.724 73.295 303.147 77.298 301.633 76.175 297.503 80.451 297.301 80.653 293.025 84.783 294.149 86.297 290.145 89.874 292.495 92.554 289.159 95.235 292.495 98.812 290.145 100.326 294.149 104.456 293.025 104.659 297.301 108.934 297.503 107.811 301.633 111.814 303.147 109.464 306.724 112.8 309.405" fill="#fff" stroke="#1c3664" stroke-miterlimit="10" stroke-width="1.111"/>
      <polygon points="112.8 309.405 109.464 312.085 111.814 315.662 107.811 317.177 108.934 321.307 104.658 321.509 104.456 325.785 100.326 324.661 98.812 328.665 95.235 326.314 92.554 329.651 89.874 326.314 86.297 328.665 84.783 324.661 80.653 325.784 80.45 321.509 76.175 321.306 77.298 317.176 73.295 315.663 75.645 312.085 72.309 309.405 75.645 306.724 73.295 303.147 77.298 301.633 76.175 297.503 80.451 297.301 80.653 293.025 84.783 294.149 86.297 290.145 89.874 292.495 92.554 289.159 95.235 292.495 98.812 290.145 100.326 294.149 104.456 293.025 104.659 297.301 108.934 297.503 107.811 301.633 111.814 303.147 109.464 306.724 112.8 309.405" fill="#fff" stroke="#005b6a" stroke-linecap="round" stroke-linejoin="round" stroke-width="3.01"/>
    </g>
    <circle cx="92.554" cy="309.405" r="14.772" fill="#fff" stroke="#005b6a" stroke-linecap="round" stroke-linejoin="round" stroke-width="3.01"/>
    <line x1="28.555" y1="245.461" x2="105.442" y2="245.461" fill="none" stroke="#1c3664" stroke-linecap="round" stroke-linejoin="round" stroke-width="3.01"/>
    <line x1="28.555" y1="249.702" x2="105.442" y2="249.702" fill="none" stroke="#1c3664" stroke-linecap="round" stroke-linejoin="round" stroke-width="3.01"/>
    <line x1="28.555" y1="253.943" x2="105.442" y2="253.943" fill="none" stroke="#1c3664" stroke-linecap="round" stroke-linejoin="round" stroke-width="3.01"/>
    <line x1="28.555" y1="258.185" x2="105.442" y2="258.185" fill="none" stroke="#1c3664" stroke-linecap="round" stroke-linejoin="round" stroke-width="3.01"/>
    <line x1="28.555" y1="262.426" x2="105.442" y2="262.426" fill="none" stroke="#1c3664" stroke-linecap="round" stroke-linejoin="round" stroke-width="3.01"/>
    <line x1="28.555" y1="266.667" x2="105.442" y2="266.667" fill="none" stroke="#1c3664" stroke-linecap="round" stroke-linejoin="round" stroke-width="3.01"/>
    <line x1="28.555" y1="270.908" x2="105.442" y2="270.908" fill="none" stroke="#1c3664" stroke-linecap="round" stroke-linejoin="round" stroke-width="3.01"/>
    <line x1="28.555" y1="275.149" x2="105.442" y2="275.149" fill="none" stroke="#1c3664" stroke-linecap="round" stroke-linejoin="round" stroke-width="3.01"/>
    <line x1="28.555" y1="279.391" x2="105.442" y2="279.391" fill="none" stroke="#1c3664" stroke-linecap="round" stroke-linejoin="round" stroke-width="3.01"/>
    <line x1="28.555" y1="283.632" x2="105.442" y2="283.632" fill="none" stroke="#1c3664" stroke-linecap="round" stroke-linejoin="round" stroke-width="3.01"/>
    <path d="M40.662,311.987c-8.153,1.5-10.621-16.506-4.2-8.179,4.162,5.4,9.066,15,6.066,18.54S40.662,311.987,40.662,311.987Z" fill="none" stroke="#1c3664" stroke-linecap="round" stroke-linejoin="round" stroke-width="3.01"/>
    <path d="M41.574,300.877a83.326,83.326,0,0,1,2.778,14.087,1.765,1.765,0,0,1-2.985,1.344c-.952-.943-1.237-2.239,1.076-3.775a17.133,17.133,0,0,0,6.69-8.347,1.726,1.726,0,0,0,.055-.907c-.406-1.975-4.186-8.612-3.47-1.454a118.95,118.95,0,0,0,2.723,15.617" fill="none" stroke="#1c3664" stroke-linecap="round" stroke-linejoin="round" stroke-width="3.01"/>
    <path d="M50.128,313.111a30.577,30.577,0,0,0,1-6.525q.334,3.573.945,7.113c1.517-1.692,1.078-4.428,2.3-6.344a1.57,1.57,0,0,1,1.3-.858,1.7,1.7,0,0,1,.773.31,8.712,8.712,0,0,1,1.885,1.6c.164.186.358.4.6.38a.772.772,0,0,0,.331-.129c1-.583,3.526-1.415,3.556-2.8" fill="none" stroke="#1c3664" stroke-linecap="round" stroke-linejoin="round" stroke-width="3.01"/>
  </g>
  <rect x="15" y="341.778" width="95.744" height="15.555" rx="7.778" ry="7.778" fill="#005b9b"/>
  <rect x="28.805" y="364" width="68.134" height="10" rx="5" ry="5" fill="#005b9b"/>
  <g>
    <g>
      <path d="M488.375,66.931a3.754,3.754,0,0,0-1.478-1.543L434.57,50.022a3.868,3.868,0,0,0-3.826,0L378.418,65.388a3.809,3.809,0,0,0-1.531,1.672,3.75,3.75,0,0,0-.376,1.647v60.419a3.812,3.812,0,0,0,1.907,3.307l52.326,30.216a4.526,4.526,0,0,0,.895.376,3.733,3.733,0,0,0,.376-1.647,3.7,3.7,0,0,0,.454,1.777,3.77,3.77,0,0,0,2.1-.506L486.9,132.433a3.8,3.8,0,0,0,1.919-3.307V68.707A3.756,3.756,0,0,0,488.375,66.931Z" fill="#fff" stroke="#1c3664" stroke-miterlimit="10" stroke-width="1.136"/>
      <g>
        <ellipse cx="388.368" cy="86.654" rx="6.092" ry="8.202" transform="translate(-0.194 172.433) rotate(-25.027)" fill="#1c3664" stroke="#1c3664" stroke-miterlimit="10" stroke-width="1.136"/>
        <ellipse cx="417.876" cy="138.684" rx="6.092" ry="8.202" transform="translate(-19.435 189.802) rotate(-25.027)" fill="#1c3664" stroke="#1c3664" stroke-miterlimit="10" stroke-width="1.136"/>
        <ellipse cx="404.263" cy="110.91" rx="6.092" ry="8.202" transform="translate(-8.963 181.435) rotate(-25.027)" fill="#1c3664" stroke="#1c3664" stroke-miterlimit="10" stroke-width="1.136"/>
        <ellipse cx="461.466" cy="110.91" rx="8.202" ry="6.092" transform="translate(165.749 482.128) rotate(-64.973)" fill="#1c3664" stroke="#1c3664" stroke-miterlimit="10" stroke-width="1.136"/>
        <ellipse cx="463.476" cy="66.937" rx="8.202" ry="5.215" transform="matrix(0.999, -0.036, 0.036, 0.999, -2.117, 16.799)" fill="#1c3664" stroke="#1c3664" stroke-miterlimit="10" stroke-width="1.136"/>
        <ellipse cx="401.665" cy="66.937" rx="8.202" ry="5.215" transform="matrix(0.999, -0.036, 0.036, 0.999, -2.157, 14.564)" fill="#1c3664" stroke="#1c3664" stroke-miterlimit="10" stroke-width="1.136"/>
        <path d="M488.375,66.931a3.8,3.8,0,0,0-2.114.493L433.935,86.292a3.843,3.843,0,0,0-1.92,3.307,3.83,3.83,0,0,0-1.906-3.307L377.782,67.424a3.791,3.791,0,0,0-.895-.364,3.809,3.809,0,0,1,1.531-1.672l52.326-15.366a3.868,3.868,0,0,1,3.826,0L486.9,65.388A3.754,3.754,0,0,1,488.375,66.931Z" fill="none" stroke="#1c3664" stroke-linecap="round" stroke-linejoin="round" stroke-width="1.79"/>
        <path d="M432.015,89.6v71.779a3.73,3.73,0,0,1-.376,1.647,4.526,4.526,0,0,1-.895-.376l-52.326-30.216a3.812,3.812,0,0,1-1.907-3.307V68.707a3.75,3.75,0,0,1,.376-1.647,3.791,3.791,0,0,1,.895.364l52.327,18.868A3.83,3.83,0,0,1,432.015,89.6Z" fill="none" stroke="#1c3664" stroke-linecap="round" stroke-linejoin="round" stroke-width="1.79"/>
        <path d="M488.816,68.707v60.419a3.8,3.8,0,0,1-1.919,3.307L434.57,162.649a3.77,3.77,0,0,1-2.1.506,3.7,3.7,0,0,1-.454-1.777V89.6a3.843,3.843,0,0,1,1.92-3.307l52.326-18.868a3.8,3.8,0,0,1,2.114-.493A3.756,3.756,0,0,1,488.816,68.707Z" fill="none" stroke="#1c3664" stroke-linecap="round" stroke-linejoin="round" stroke-width="1.79"/>
      </g>
    </g>
    <rect x="383.063" y="170.052" width="97.904" height="15.906" rx="7.953" ry="7.953" fill="#005b9b"/>
    <rect x="397.18" y="192.775" width="69.671" height="10.225" rx="5.113" ry="5.113" fill="#005b9b"/>
  </g>
  <g>
    <path d="M35.42,212.07a.845.845,0,0,0-.22.573,16.952,16.952,0,0,1-.291,2.621c-.128.75-.347,1.866-.667,3.439l-.035.13c-.256,1.271-.436,2.184-.534,2.734-.183.96-.315,1.777-.388,2.427-.032.26-.082.593-.155,1.007q-.165-.556-.357-1.22c-.015-.06-.056-.205-.124-.438l-.113-.386c-.089-.321-.171-.593-.237-.795-.7-2.44-1.329-4.4-1.869-5.822l-.044-.091a1.018,1.018,0,0,0-.379-.354.741.741,0,0,0-.685-.026.805.805,0,0,0-.507.6.519.519,0,0,0-.093.292c-.128.749-.317,1.594-.565,2.509-.156.567-.4,1.424-.745,2.579-.183.65-.324,1.136-.427,1.471-.12.427-.232.837-.333,1.228l-.06-.31c-.14-.729-.321-1.831-.551-3.37l-.021-.175c-.3-1.888-.559-3.348-.775-4.338a25.407,25.407,0,0,0-1.281-4.243.848.848,0,0,0-.467-.424.872.872,0,0,0-.592,0,.782.782,0,0,0-.5.5.953.953,0,0,0,.016.622,21.525,21.525,0,0,1,1.187,3.92q.317,1.4.734,4.152a1.87,1.87,0,0,0,.028.253q.364,2.292.578,3.425a28.862,28.862,0,0,0,.76,3.2v.058a.775.775,0,0,0,.037.244.863.863,0,0,0,.548.646.848.848,0,0,0,.588.012.764.764,0,0,0,.364-.262l.108-.144.15-.4c.04-.153.1-.347.167-.587l.287-1c.153-.715.373-1.571.655-2.554.083-.309.225-.788.423-1.441.341-1.168.591-2.038.752-2.616l.007-.029c.266.843.56,1.822.887,2.954.069.224.146.482.237.8.013.042.051.167.112.378l.118.414q.512,1.778.833,2.8c.059.195.143.428.24.676a2.057,2.057,0,0,0,.22.491l.115.182a1.148,1.148,0,0,0,.159.2l.122.088a1.084,1.084,0,0,0,.488.118l.057.15.033-.152a.891.891,0,0,0,.633-.423,1.469,1.469,0,0,0,.141-.284c.031-.089.074-.229.142-.449q.108-.435.262-1.2c.182-.952.307-1.7.37-2.247.054-.57.173-1.344.354-2.3.1-.537.285-1.436.559-2.72l.037-.191c.311-1.482.535-2.63.666-3.412a18.809,18.809,0,0,0,.3-2.9.815.815,0,0,0-.248-.593A.863.863,0,0,0,35.42,212.07Z" fill="#005b6a"/>
    <path d="M48.06,222.66a.8.8,0,0,0-.275.606,3.724,3.724,0,0,1-.99,2.823,2.623,2.623,0,0,1-2.112.711,3.651,3.651,0,0,1-2.342-1.13,4.658,4.658,0,0,1-1.321-2.988,19.4,19.4,0,0,1,0-4.011,9.3,9.3,0,0,1,1.04-3.651,2.91,2.91,0,0,1,1.09-1.028,3.662,3.662,0,0,1,1.637-.487,3.273,3.273,0,0,1,1.636.245,2.168,2.168,0,0,1,1.045.938,2,2,0,0,1,.216.709,7.966,7.966,0,0,1,.04.936v.7l.006.08a.867.867,0,0,0,.285.524.855.855,0,0,0,1.164-.032.744.744,0,0,0,.227-.615v-.639a10.651,10.651,0,0,0-.047-1.179,3.656,3.656,0,0,0-.43-1.327,4.006,4.006,0,0,0-1.785-1.615,4.8,4.8,0,0,0-2.477-.41,5.5,5.5,0,0,0-2.378.719,4.512,4.512,0,0,0-1.686,1.63A11.066,11.066,0,0,0,39.34,218.5a21.861,21.861,0,0,0,0,4.35,6.356,6.356,0,0,0,1.813,4.007,5.284,5.284,0,0,0,3.407,1.627c.13.009.26.014.387.014a4.241,4.241,0,0,0,3.02-1.184,5.39,5.39,0,0,0,1.5-4.044.788.788,0,0,0-.268-.6A.873.873,0,0,0,48.06,222.66Z" fill="#005b6a"/>
    <path d="M60.98,222.732c-.022-.072-.1-.372-.23-.9-.15-.607-.248-.989-.289-1.147-.5-1.916-.93-3.467-1.289-4.614a24.69,24.69,0,0,0-1.627-4.038.809.809,0,0,0-.456-.446.86.86,0,0,0-.7.073.845.845,0,0,0-.359.4.829.829,0,0,0-.222.371l-1.273,4.321a.816.816,0,0,0-.134.456v.035c-1.032,3.674-1.793,6.617-2.264,8.751l-.055.1a.411.411,0,0,0-.024.055l-.08.093v.211l-.162.814a.908.908,0,0,0-.005.437l.027.114a.775.775,0,0,0,.543.6l.069.06h.211a.816.816,0,0,0,.836-.715c.164-1.015.532-2.624,1.093-4.79,1.427-.137,2.961-.207,4.567-.207a.836.836,0,0,0,.087-.017c.06.231.1.38.133.47.538,2.121,1,3.749,1.364,4.833a.807.807,0,0,0,.439.5.829.829,0,0,0,.346.077.855.855,0,0,0,.286-.051.866.866,0,0,0,.462-.405.819.819,0,0,0,.055-.653Q61.8,225.931,60.98,222.732Zm-5.072-4.618h.017a6.188,6.188,0,0,1,.2-.7c.11-.32.167-.654.275-.975h-.019q.26-.891.516-1.75c.2.527.908,2.867,1.1,3.329,0,0,.546,1.947.831,3.069v0c-1.326.008-2.589.065-3.787.163C55.3,220.293,55.589,219.249,55.908,218.114Z" fill="#005b6a"/>
    <path d="M67.589,214.06a1.205,1.205,0,0,1,.587-.24,4.779,4.779,0,0,1,.93.027,1.134,1.134,0,0,1,.227.021,4.249,4.249,0,0,1,2.529.773,3.4,3.4,0,0,1,.973,2.374.878.878,0,0,0,.287.519.811.811,0,0,0,.618.205.833.833,0,0,0,.595-.311.8.8,0,0,0,.176-.608,4.953,4.953,0,0,0-1.548-3.466,5.763,5.763,0,0,0-3.434-1.154,1.064,1.064,0,0,0-.335-.034,6.93,6.93,0,0,0-1.247-.019,2.806,2.806,0,0,0-1.383.577c-1.239.976-2.072,2.722-2.474,5.185a15.829,15.829,0,0,0-.041,5.622,5.9,5.9,0,0,0,1.908,3.34,6.578,6.578,0,0,0,3.238,1.664,4.261,4.261,0,0,0,3.368-.54c.04-.025.079-.051.117-.077a.823.823,0,0,0,.249.549.832.832,0,0,0,.6.248.812.812,0,0,0,.621-.278.851.851,0,0,0,.21-.563c0-.55.015-1.292.035-2.144a2,2,0,0,0,.03-.36q.042-1.693.041-2.552a.847.847,0,0,0-.221-.576.827.827,0,0,0-.62-.266H71.89c-.749.014-1.377.006-1.889-.021a.845.845,0,0,0-.57.217.834.834,0,0,0-.063,1.188.8.8,0,0,0,.581.277h0c.524.03,1.183.038,1.949.023h.826c0,.035,0,.074,0,.118,0,.085,0,.189-.02.362l-.023.125v.18a2.6,2.6,0,0,1-1.027,2.142,2.713,2.713,0,0,1-2.126.305,5.07,5.07,0,0,1-2.436-1.259,4.292,4.292,0,0,1-1.4-2.4,14.884,14.884,0,0,1,.045-5.046C66.085,216.143,66.709,214.752,67.589,214.06Z" fill="#005b6a"/>
    <path d="M81.309,220.867c-1.678,0-3.275.072-4.747.214a.771.771,0,0,0-.619.326.874.874,0,0,0-.158.58.819.819,0,0,0,.276.555.862.862,0,0,0,.613.22h.014c1.441-.14,3-.211,4.621-.211a.852.852,0,0,0,.841-.842.848.848,0,0,0-.841-.842Z" fill="#005b6a"/>
    <path d="M93.525,222.732c-.022-.072-.1-.372-.231-.9-.149-.607-.247-.989-.288-1.147-.5-1.916-.931-3.467-1.289-4.614a24.78,24.78,0,0,0-1.627-4.038.814.814,0,0,0-.456-.446.86.86,0,0,0-.7.073.84.84,0,0,0-.359.4.83.83,0,0,0-.223.371l-1.273,4.321a.823.823,0,0,0-.133.456v.035c-1.032,3.674-1.794,6.617-2.265,8.751l-.055.1a.415.415,0,0,0-.023.055l-.081.093v.211l-.162.814a.933.933,0,0,0-.005.437l.028.114a.775.775,0,0,0,.542.6l.069.06H85.2a.814.814,0,0,0,.836-.715c.165-1.015.533-2.624,1.094-4.79,1.427-.137,2.961-.207,4.566-.207a.855.855,0,0,0,.088-.017c.059.231.1.38.132.47.539,2.121,1,3.749,1.364,4.833a.811.811,0,0,0,.44.5.828.828,0,0,0,.345.077.857.857,0,0,0,.287-.051.873.873,0,0,0,.462-.405.819.819,0,0,0,.055-.653Q94.349,225.931,93.525,222.732Zm-5.073-4.618h.018a6.4,6.4,0,0,1,.2-.7c.111-.32.168-.654.276-.975h-.02q.261-.891.516-1.75c.2.527.908,2.867,1.1,3.329,0,0,.545,1.947.831,3.069v0c-1.326.008-2.59.065-3.787.163C87.846,220.293,88.133,219.249,88.452,218.114Z" fill="#005b6a"/>
    <path d="M107.777,227.519q-.523-1.589-1.347-4.787c-.022-.072-.1-.372-.23-.9-.15-.607-.248-.989-.289-1.147-.5-1.916-.93-3.467-1.289-4.614A24.69,24.69,0,0,0,103,212.03a.811.811,0,0,0-.456-.446.86.86,0,0,0-.7.073.845.845,0,0,0-.359.4.829.829,0,0,0-.222.371l-1.273,4.321a.816.816,0,0,0-.134.456v.035c-1.032,3.674-1.793,6.617-2.264,8.751l-.055.1a.411.411,0,0,0-.024.055l-.08.093v.211l-.162.814a.908.908,0,0,0,0,.437l.027.114a.775.775,0,0,0,.542.6l.07.06h.211a.816.816,0,0,0,.836-.715c.164-1.015.532-2.624,1.093-4.79,1.427-.137,2.961-.207,4.566-.207a.855.855,0,0,0,.088-.017c.059.231.1.38.133.47.538,2.121,1,3.749,1.364,4.833a.807.807,0,0,0,.439.5.829.829,0,0,0,.346.077.855.855,0,0,0,.286-.051.866.866,0,0,0,.462-.405A.819.819,0,0,0,107.777,227.519Zm-6.419-9.405h.017a6.188,6.188,0,0,1,.2-.7c.11-.32.167-.654.275-.975h-.019q.26-.891.516-1.75c.2.527.908,2.867,1.1,3.329,0,0,.546,1.947.831,3.069v0c-1.326.008-2.589.065-3.787.163C100.752,220.293,101.039,219.249,101.358,218.114Z" fill="#005b6a"/>
  </g>
</svg>
