<svg xmlns="http://www.w3.org/2000/svg" width="500" height="500" viewBox="0 0 500 500">
  <title>Artboard 2sq icons</title>
  <rect x="12" y="330.044" width="98.847" height="98.847" rx="5.506" ry="5.506" fill="#005b9b"/>
  <rect x="137.737" y="270.511" width="98.847" height="158.38" rx="5.506" ry="5.506" fill="#005b6a"/>
  <rect x="262.338" y="176.157" width="98.847" height="252.735" rx="5.506" ry="5.506" fill="#005b6a"/>
  <rect x="388.075" y="54.844" width="98.847" height="374.048" rx="5.506" ry="5.506" fill="#005b6a" stroke="#1c3664" stroke-miterlimit="10"/>
  <rect x="12" y="428.323" width="476.058" height="30.677" rx="5.512" ry="5.512" fill="#1c3664"/>
  <path d="M388.006,32.145l-58.07,15.56a2.909,2.909,0,0,0-1.3,4.866l17.64,17.64-88.857,88.857L242.851,144.5a5.113,5.113,0,0,0-7.23,0L115.392,264.732,95.717,245.057a5.112,5.112,0,0,0-7.117-.112L13.612,315.388a5.113,5.113,0,1,0,7,7.453l71.376-67.05,19.787,19.787a5.115,5.115,0,0,0,7.231,0L239.236,155.35,253.8,169.914a5.111,5.111,0,0,0,7.23,0L353.5,77.442l17.64,17.64a2.909,2.909,0,0,0,4.867-1.3l15.559-58.071A2.908,2.908,0,0,0,388.006,32.145Z" fill="#1c3664"/>
</svg>
